<svg xmlns="http://www.w3.org/2000/svg" xmlns:xlink="http://www.w3.org/1999/xlink" x="0px" y="0px" width="105px" height="73px" viewBox="0 0 105 73" xml:space="preserve">
<g>
<path d="M0,0v16.8V19v54h105V19v-2.2V0H0z M102.7,70.8H2.3V19h100.4V70.8z M2.3,2.2h100.4v14.5H2.3V2.2z"></path>
<path d="M93,7.3c-1.2,0-2.3,1-2.3,2.2c0,1.2,1,2.2,2.3,2.2s2.3-1,2.3-2.2C95.3,8.3,94.3,7.3,93,7.3z"></path>
<path d="M37.6,56.6c0.3,0,0.7-0.2,0.9-0.4c0.4-0.5,0.3-1.2-0.2-1.6L24.5,44.5l13.8-10.1c0.5-0.4,0.6-1.1,0.2-1.6
		c-0.4-0.5-1.1-0.6-1.6-0.2L20.7,44.5l16.3,11.9C37.1,56.5,37.4,56.6,37.6,56.6z"></path>
<path d="M66.5,56.1c0.2,0.3,0.6,0.4,0.9,0.4c0.2,0,0.5-0.1,0.7-0.2l16.3-11.9L68.1,32.6c-0.5-0.4-1.2-0.3-1.6,0.2
		c-0.4,0.5-0.3,1.2,0.2,1.6l13.8,10.1L66.7,54.5C66.2,54.9,66.1,55.6,66.5,56.1z"></path>
<path d="M45.4,64.2c0.1,0,0.3,0.1,0.4,0.1c0.5,0,0.9-0.3,1.1-0.7l13.4-37c0.2-0.6-0.1-1.2-0.7-1.4c-0.6-0.2-1.2,0.1-1.5,0.7
		l-13.4,37C44.5,63.4,44.8,64,45.4,64.2z"></path>
</g>
</svg>