<svg xmlns="http://www.w3.org/2000/svg" xmlnsXlink="http://www.w3.org/1999/xlink" x="0px" y="0px" width="110px" height="92px" viewBox="0 0 110 92" xmlSpace="preserve">
<g>
<path d="M80.8,79.6H1.1c-0.6,0-1.1,0.5-1.1,1.1c0,0.6,0.5,1.1,1.1,1.1h79.7c0.6,0,1.1-0.5,1.1-1.1C81.9,80.1,81.4,79.6,80.8,79.6z"></path>
<path d="M107.3,57H91.4c-1.5,0-2.7,1.2-2.7,2.7v29.5c0,1.5,1.2,2.7,2.7,2.7h15.9c1.5,0,2.7-1.2,2.7-2.7V59.7
		C110,58.2,108.8,57,107.3,57z M107.8,89.3c0,0.3-0.2,0.5-0.5,0.5H91.4c-0.3,0-0.5-0.2-0.5-0.5V59.7c0-0.3,0.2-0.5,0.5-0.5h15.9
		c0.3,0,0.5,0.2,0.5,0.5V89.3z"></path>
<path d="M84.6,56.4h-8.2V46.3h19.7c1.5,0,2.7-1.2,2.7-2.7V2.7c0-1.5-1.2-2.7-2.7-2.7H29.7c-1.5,0-2.7,1.2-2.7,2.7v31.7H8.3
		c-1.5,0-2.7,1.2-2.7,2.7v36.3c0,1.5,1.2,2.7,2.7,2.7h65.3c1.5,0,2.7-1.2,2.7-2.7V58.7h8.2c0.6,0,1.1-0.5,1.1-1.1
		S85.2,56.4,84.6,56.4z M29.2,2.7c0-0.3,0.2-0.5,0.5-0.5h66.4c0.3,0,0.5,0.2,0.5,0.5v40.8c0,0.3-0.2,0.5-0.5,0.5H76.3v-6.9
		c0-1.5-1.2-2.7-2.7-2.7H29.2V2.7z M74.1,73.5c0,0.3-0.2,0.5-0.5,0.5H8.3c-0.3,0-0.5-0.2-0.5-0.5V37.2c0-0.3,0.2-0.5,0.5-0.5h65.3
		c0.3,0,0.5,0.2,0.5,0.5V73.5z"></path>
</g>
</svg>