<svg xmlns="http://www.w3.org/2000/svg" xmlns:xlink="http://www.w3.org/1999/xlink" x="0px" y="0px" width="92px" height="84px" viewBox="0 0 92 84" xml:space="preserve">
<g>
<path d="M75.5,25.2C72.1,10.6,58.9,0,43.7,0c-18,0-32.6,14.6-32.6,32.5c0,0.5,0,1,0,1.4C4.5,36,0,42.1,0,49.1
		C0,57.8,7.1,65,15.9,65h17.3v-2.3H15.9c-7.5,0-13.7-6.1-13.7-13.6c0-6.3,4.2-11.7,10.3-13.2l0.9-0.2l-0.1-0.9
		c-0.1-0.7-0.1-1.5-0.1-2.2C13.4,15.8,27,2.3,43.7,2.3c14.4,0,26.9,10.2,29.7,24.2l0.2,0.8l0.8,0.1c8.8,1.2,15.4,8.8,15.4,17.6
		c0,9.8-8,17.8-17.8,17.8H56.1V65h15.8C83,65,92,56,92,44.9C92,35.2,84.9,26.9,75.5,25.2z"></path>
<path d="M57.5,50.6c0.5-0.4,0.6-1.1,0.2-1.6L44.3,32.2L30.9,49c-0.4,0.5-0.3,1.2,0.2,1.6c0.2,0.2,0.5,0.2,0.7,0.2
		c0.3,0,0.7-0.1,0.9-0.4l10.5-13.2v45.6c0,0.6,0.5,1.1,1.1,1.1c0.6,0,1.1-0.5,1.1-1.1V37.2l10.5,13.2C56.3,50.9,57,51,57.5,50.6z"></path>
</g>
</svg>