<?xml version="1.0" encoding="utf-8"?>
<!-- Generator: Adobe Illustrator 26.0.1, SVG Export Plug-In . SVG Version: 6.00 Build 0)  -->
<svg version="1.1" id="Layer_1" xmlns="http://www.w3.org/2000/svg" xmlns:xlink="http://www.w3.org/1999/xlink" x="0px" y="0px"
	 viewBox="0 0 1440 107" style="enable-background:new 0 0 1440 107;" xml:space="preserve">
<style type="text/css">
	.st0{fill:#fffdfe;}
</style>
<path class="st0" d="M1440,98.63c-7.08,0.95-17.38,2.13-29.85,2.87c0,0-28.49,1.7-57.98-0.63C1320.72,98.39,1238.47,77.31,1138,27
	c-16.52,16.69-64.29,60.27-128,59c-41.88-0.83-78.27-20.79-111.81-39.19C874.41,33.77,856.13,20.54,844,11
	c-22.93,16.36-59.05,38.39-107.49,53.49C721.62,69.14,699.37,76.07,673,78c-64.39,4.71-118.33-22.96-150-44
	c-17.22,4.03-43.1,7.84-74,4c-46.89-5.83-80.38-26.18-97-38c-37.87,20.63-109.13,52.18-201,50c-36.54-0.87-68.31-6.88-94-14
	c-6.15,8.73-14.92,19.43-27,30C19.2,75.45,8.7,82.22,0,87c0,6.67,0,13.33,0,20c480,0,960,0,1440,0
	C1440,104.21,1440,101.42,1440,98.63z"/>
</svg>
